#tb 0: 250000/1585341
#media_type 0: video
#codec_id 0: rawvideo
#dimensions 0: 320x200
#sar 0: 0/1
0,          0,          0,        1,   192000, 0x8f9020f2
0,          1,          1,        1,   192000, 0xbfba7f63
0,          2,          2,        1,   192000, 0x96b48d11
0,          3,          3,        1,   192000, 0xf91727d5
0,          4,          4,        1,   192000, 0xf91727d5
0,          5,          5,        1,   192000, 0xf91727d5
0,          6,          6,        1,   192000, 0xf91727d5
0,          7,          7,        1,   192000, 0xf91727d5
0,          8,          8,        1,   192000, 0xf91727d5
0,          9,          9,        1,   192000, 0xf91727d5
0,         10,         10,        1,   192000, 0xf91727d5
0,         11,         11,        1,   192000, 0xf91727d5
0,         12,         12,        1,   192000, 0xf91727d5
0,         13,         13,        1,   192000, 0xf91727d5
0,         14,         14,        1,   192000, 0xf91727d5
0,         15,         15,        1,   192000, 0xf91727d5
0,         16,         16,        1,   192000, 0xf91727d5
0,         17,         17,        1,   192000, 0x61c4e431
0,         18,         18,        1,   192000, 0x61c4e431
0,         19,         19,        1,   192000, 0x61c4e431
0,         20,         20,        1,   192000, 0x61c4e431
0,         21,         21,        1,   192000, 0x1fb3f649
0,         22,         22,        1,   192000, 0x1fb3f649
0,         23,         23,        1,   192000, 0x1fb3f649
0,         24,         24,        1,   192000, 0x1fb3f649
0,         25,         25,        1,   192000, 0x1fb3f649
0,         26,         26,        1,   192000, 0x14f72c22
0,         27,         27,        1,   192000, 0x14f72c22
0,         28,         28,        1,   192000, 0x14f72c22
0,         29,         29,        1,   192000, 0x14f72c22
0,         30,         30,        1,   192000, 0x8cae3816
0,         31,         31,        1,   192000, 0x8cae3816
0,         32,         32,        1,   192000, 0x8cae3816
0,         33,         33,        1,   192000, 0x8cae3816
0,         34,         34,        1,   192000, 0x8cae3816
0,         35,         35,        1,   192000, 0x2b6f2c22
0,         36,         36,        1,   192000, 0x2b6f2c22
0,         37,         37,        1,   192000, 0x2b6f2c22
0,         38,         38,        1,   192000, 0x2b6f2c22
0,         39,         39,        1,   192000, 0xc568024c
0,         40,         40,        1,   192000, 0xc568024c
0,         41,         41,        1,   192000, 0xc568024c
0,         42,         42,        1,   192000, 0xc568024c
0,         43,         43,        1,   192000, 0xc568024c
0,         44,         44,        1,   192000, 0xa93b440a
0,         45,         45,        1,   192000, 0xa93b440a
0,         46,         46,        1,   192000, 0xa93b440a
0,         47,         47,        1,   192000, 0xa93b440a
0,         48,         48,        1,   192000, 0x798a2f1f
0,         49,         49,        1,   192000, 0x798a2f1f
0,         50,         50,        1,   192000, 0x798a2f1f
0,         51,         51,        1,   192000, 0x798a2f1f
0,         52,         52,        1,   192000, 0x798a2f1f
0,         53,         53,        1,   192000, 0xf04288c5
0,         54,         54,        1,   192000, 0xf04288c5
0,         55,         55,        1,   192000, 0xf04288c5
0,         56,         56,        1,   192000, 0xf04288c5
0,         57,         57,        1,   192000, 0x4aa04a04
0,         58,         58,        1,   192000, 0x4aa04a04
0,         59,         59,        1,   192000, 0x4aa04a04
0,         60,         60,        1,   192000, 0x4aa04a04
0,         61,         61,        1,   192000, 0x4aa04a04
0,         62,         62,        1,   192000, 0xb0304d01
0,         63,         63,        1,   192000, 0xb0304d01
0,         64,         64,        1,   192000, 0xb0304d01
0,         65,         65,        1,   192000, 0xb0304d01
0,         66,         66,        1,   192000, 0xef353b13
0,         67,         67,        1,   192000, 0xef353b13
0,         68,         68,        1,   192000, 0xef353b13
0,         69,         69,        1,   192000, 0xef353b13
0,         70,         70,        1,   192000, 0xef353b13
0,         71,         71,        1,   192000, 0xbf823519
0,         72,         72,        1,   192000, 0xbf823519
0,         73,         73,        1,   192000, 0xbf823519
0,         74,         74,        1,   192000, 0xbf823519
0,         75,         75,        1,   192000, 0xd0352c22
0,         76,         76,        1,   192000, 0xd0352c22
0,         77,         77,        1,   192000, 0xd0352c22
0,         78,         78,        1,   192000, 0xd0352c22
0,         79,         79,        1,   192000, 0xd0352c22
0,         80,         80,        1,   192000, 0x817299a6
0,         81,         81,        1,   192000, 0xfb1475ca
0,         82,         82,        1,   192000, 0xfcd278c7
0,         83,         83,        1,   192000, 0xa08742fd
0,         84,         84,        1,   192000, 0x47c245fa
0,         85,         85,        1,   192000, 0xf7e7b48b
0,         86,         86,        1,   192000, 0xf56378c7
0,         87,         87,        1,   192000, 0x80bc54eb
0,         88,         88,        1,   192000, 0xae59221e
0,         89,         89,        1,   192000, 0x7d0fc869
0,         90,         90,        1,   192000, 0x8e89da57
0,         91,         91,        1,   192000, 0xf0a9f53c
0,         92,         92,        1,   192000, 0x658d013f
0,         93,         93,        1,   192000, 0x90ef5ae5
0,         94,         94,        1,   192000, 0x93b81f21
0,         95,         95,        1,   192000, 0x61e545fa
0,         96,         96,        1,   192000, 0xc6688ab5
0,         97,         97,        1,   192000, 0x72032e12
0,         98,         98,        1,   192000, 0xf28c3a06
0,         99,         99,        1,   192000, 0xf1bc221e
0,        100,        100,        1,   192000, 0x941bc869
0,        101,        101,        1,   192000, 0xe95ead84
0,        102,        102,        1,   192000, 0x61dbda57
0,        103,        103,        1,   192000, 0x79800739
0,        104,        104,        1,   192000, 0x00c31927
0,        105,        105,        1,   192000, 0x74a3da57
0,        106,        106,        1,   192000, 0xb98cf53c
0,        107,        107,        1,   192000, 0xd3f9162a
0,        108,        108,        1,   192000, 0x888c043c
0,        109,        109,        1,   192000, 0x100f1f21
0,        110,        110,        1,   192000, 0x41993d03
0,        111,        111,        1,   192000, 0x01a548f7
0,        112,        112,        1,   192000, 0xbe5372cd
0,        113,        113,        1,   192000, 0x0fec4000
0,        114,        114,        1,   192000, 0x80e9340c
0,        115,        115,        1,   192000, 0xea582818
0,        116,        116,        1,   192000, 0x5c3a2e12
0,        117,        117,        1,   192000, 0x5c2b4ef1
0,        118,        118,        1,   192000, 0xf2409fa0
0,        119,        119,        1,   192000, 0x4bc472cd
0,        120,        120,        1,   192000, 0x3dcb96a9
0,        121,        121,        1,   192000, 0xff978ab5
0,        122,        122,        1,   192000, 0xff72013f
0,        123,        123,        1,   192000, 0x2f530d33
0,        124,        124,        1,   192000, 0xa3350d33
0,        125,        125,        1,   192000, 0x6be6251b
0,        126,        126,        1,   192000, 0x07f081be
0,        127,        127,        1,   192000, 0xb5d957e8
0,        128,        128,        1,   192000, 0x43c551ee
0,        129,        129,        1,   192000, 0x19224ef1
0,        130,        130,        1,   192000, 0x0720e64b
0,        131,        131,        1,   192000, 0x3c53f53c
0,        132,        132,        1,   192000, 0x8534043c
0,        133,        133,        1,   192000, 0xb7c7ef42
0,        134,        134,        1,   192000, 0x9e3e0739
0,        135,        135,        1,   192000, 0x95e43d03
0,        136,        136,        1,   192000, 0x92473d03
0,        137,        137,        1,   192000, 0x636757e8
0,        138,        138,        1,   192000, 0xba3aec45
0,        139,        139,        1,   192000, 0xfd9e013f
0,        140,        140,        1,   192000, 0x108c1927
0,        141,        141,        1,   192000, 0x29db1030
0,        142,        142,        1,   192000, 0xe0172e12
0,        143,        143,        1,   192000, 0x744260df
0,        144,        144,        1,   192000, 0xc59478c7
0,        145,        145,        1,   192000, 0xa84475ca
0,        146,        146,        1,   192000, 0x9d2866d9
0,        147,        147,        1,   192000, 0xc49342fd
0,        148,        148,        1,   192000, 0x13e5bd82
0,        149,        149,        1,   192000, 0x10d10549
0,        150,        150,        1,   192000, 0xf5ca3b13
0,        151,        151,        1,   192000, 0x8c27a9a4
0,        152,        152,        1,   192000, 0xcc4f64e9
0,        153,        153,        1,   192000, 0x020c67e6
0,        154,        154,        1,   192000, 0xaf4773da
0,        155,        155,        1,   192000, 0x62093e10
0,        156,        156,        1,   192000, 0x96783519
0,        157,        157,        1,   192000, 0x8b9a113d
0,        158,        158,        1,   192000, 0x9050f946
